<svg xmlns="http://www.w3.org/2000/svg" xmlns:xlink="http://www.w3.org/1999/xlink" width="478" height="613" shape-rendering="optimizeSpeed">
                
            <g>
                <rect x="50" y="80" width="81.2" height="30" style="fill:#a5d6a7; stroke:#444; stroke-width:1"/>
                    
                <line x1="60" y1="80" x2="60" y2="110" style="fill:#a5d6a7; stroke:#444; stroke-width:1"/>
                <line x1="121.19999999999999" y1="80" x2="121.19999999999999" y2="110" style="fill:#a5d6a7; stroke:#444; stroke-width:1"/>
             
                <title>Main</title>
            <text x="75" y="100" font-family="monospace" font-size="13" fill="#222">
                <tspan x="75" y="100">Main</tspan>
            </text>
                
            </g>
                <g>
                   <rect x="87" y="128.5" width="365.4" height="30" rx="3" ry="3" style="fill:#90caf9; stroke:#444; stroke-width:1"/>
                   <title>output "Welcome to the Secret Number Game!"</title>
            <text x="102" y="148.5" font-family="monospace" font-size="13" fill="#222">
                <tspan x="102" y="148.5">output "Welcome to the Secret Number Game!"</tspan>
            </text>
                   
                   
                </g>
                <g>
                   <rect x="87" y="177" width="303" height="30" rx="3" ry="3" style="fill:#90caf9; stroke:#444; stroke-width:1"/>
                   <title>output "I am thinking of a number."</title>
            <text x="102" y="197" font-family="monospace" font-size="13" fill="#222">
                <tspan x="102" y="197">output "I am thinking of a number."</tspan>
            </text>
                   
                   
                </g>
                <g>
                   <rect x="87" y="225.5" width="295.2" height="30" rx="3" ry="3" style="fill:#90caf9; stroke:#444; stroke-width:1"/>
                   <title>output "Can you guess what it is?"</title>
            <text x="102" y="245.5" font-family="monospace" font-size="13" fill="#222">
                <tspan x="102" y="245.5">output "Can you guess what it is?"</tspan>
            </text>
                   
                   
                </g>
                <g>
                   <rect x="87" y="274" width="115.8" height="30" rx="3" ry="3" style="fill:#90caf9; stroke:#444; stroke-width:1"/>
                   <title>input guess</title>
            <text x="102" y="294" font-family="monospace" font-size="13" fill="#222">
                <tspan x="102" y="294">input guess</tspan>
            </text>
                   
                   
                </g><g>

            <rect x="117" y="357.5" width="262.79999999999995" height="30" rx="3" ry="3" style="fill:#b39ddb; stroke:#444; stroke-width:1"/>
            <polygon points="87,372.5 117,342.5 147,372.5 117,402.5" style="fill:#b39ddb; stroke:#444; stroke-width:1"/>
                
            <title>while guess is not correct</title>
            <text x="162" y="377.5" font-family="monospace" font-size="13" fill="#222">
                <tspan x="162" y="377.5">while guess is not correct</tspan>
            </text>
            
            <text x="105.3" y="377.5" font-family="monospace" font-size="13" fill="#222">for</text>
        </g>
                <g>
                   <rect x="137" y="412.5" width="279.6" height="30" rx="3" ry="3" style="fill:#90caf9; stroke:#444; stroke-width:1"/>
                   <title>output "Wrong guess. Try again!"</title>
            <text x="152" y="432.5" font-family="monospace" font-size="13" fill="#222">
                <tspan x="152" y="432.5">output "Wrong guess. Try again!"</tspan>
            </text>
                   
                   
                </g>
                <g>
                   <rect x="137" y="461" width="115.8" height="30" rx="3" ry="3" style="fill:#90caf9; stroke:#444; stroke-width:1"/>
                   <title>input guess</title>
            <text x="152" y="481" font-family="monospace" font-size="13" fill="#222">
                <tspan x="152" y="481">input guess</tspan>
            </text>
                   
                   
                </g>
                <g>
                   <rect x="87" y="509.5" width="186" height="30" rx="3" ry="3" style="fill:#90caf9; stroke:#444; stroke-width:1"/>
                   <title>output "You got it!"</title>
            <text x="102" y="529.5" font-family="monospace" font-size="13" fill="#222">
                <tspan x="102" y="529.5">output "You got it!"</tspan>
            </text>
                   
                   
                </g>
                <g>
                   <rect x="87" y="558" width="248.4" height="30" rx="3" ry="3" style="fill:#90caf9; stroke:#444; stroke-width:1"/>
                   <title>output "Thanks for playing!"</title>
            <text x="102" y="578" font-family="monospace" font-size="13" fill="#222">
                <tspan x="102" y="578">output "Thanks for playing!"</tspan>
            </text>
                   
                   
                </g>
            <g>
               <rect x="25" y="13.75" width="84" height="24" style="fill:#fff59d; stroke:#444; stroke-width:1"/>
               <circle cx="25" cy="25" r="15" style="fill:#fff59d; stroke:#444; stroke-width:1"/>
               <title>start</title>
            <text x="55" y="30" font-family="monospace" font-size="13" fill="#222">
                <tspan x="55" y="30">start</tspan>
            </text>
            </g>
            <g>
               <path d="M25, 40 L25 91 Q25 95&#10;                29 95&#10;                L42 95 " style="fill:none; stroke:#444; stroke-width:1"/>
               <path d="M42, 92 L50, 95 L42, 98 Z" fill="#333"/>
            </g>
            <g>
               <path d="M68.5, 110 L68.5 139.5 Q68.5 143.5&#10;                72.5 143.5&#10;                L79 143.5 " style="fill:none; stroke:#444; stroke-width:1"/>
               <path d="M79, 140.5 L87, 143.5 L79, 146.5 Z" fill="#333"/>
            </g>
            <g>
               <path d="M68.5, 110 L68.5 188 Q68.5 192&#10;                72.5 192&#10;                L79 192 " style="fill:none; stroke:#444; stroke-width:1"/>
               <path d="M79, 189 L87, 192 L79, 195 Z" fill="#333"/>
            </g>
            <g>
               <path d="M68.5, 110 L68.5 236.5 Q68.5 240.5&#10;                72.5 240.5&#10;                L79 240.5 " style="fill:none; stroke:#444; stroke-width:1"/>
               <path d="M79, 237.5 L87, 240.5 L79, 243.5 Z" fill="#333"/>
            </g>
            <g>
               <path d="M68.5, 110 L68.5 285 Q68.5 289&#10;                72.5 289&#10;                L79 289 " style="fill:none; stroke:#444; stroke-width:1"/>
               <path d="M79, 286 L87, 289 L79, 292 Z" fill="#333"/>
            </g>
            <g>
               <path d="M68.5, 110 L68.5 368.5 Q68.5 372.5&#10;                72.5 372.5&#10;                L79 372.5 " style="fill:none; stroke:#444; stroke-width:1"/>
               <path d="M79, 369.5 L87, 372.5 L79, 375.5 Z" fill="#333"/>
            </g>
            <g>
               <path d="M117, 402.5 L117 423.5 Q117 427.5&#10;                121 427.5&#10;                L129 427.5 " style="fill:none; stroke:#444; stroke-width:1"/>
               <path d="M129, 424.5 L137, 427.5 L129, 430.5 Z" fill="#333"/>
            </g>
            <g>
               <path d="M117, 402.5 L117 472 Q117 476&#10;                121 476&#10;                L129 476 " style="fill:none; stroke:#444; stroke-width:1"/>
               <path d="M129, 473 L137, 476 L129, 479 Z" fill="#333"/>
            </g>
            <g>
               <path d="M252.8, 476 L432.6 476  Q436.6 476&#10;                436.6 472&#10;                L436.6 330.5 Q436.6 322.5&#10;                432.6 322.5&#10;                L125 322.5  Q117 322.5&#10;                117 326.5&#10;                L117 334.5" style="fill:none; stroke:#444; stroke-width:1"/>
               <path d="M114, 334.5 L117, 342.5 L120, 334.5 Z" fill="#333"/>
            </g>
            <g>
               <path d="M68.5, 110 L68.5 520.5 Q68.5 524.5&#10;                72.5 524.5&#10;                L79 524.5 " style="fill:none; stroke:#444; stroke-width:1"/>
               <path d="M79, 521.5 L87, 524.5 L79, 527.5 Z" fill="#333"/>
            </g>
            <g>
               <path d="M68.5, 110 L68.5 569 Q68.5 573&#10;                72.5 573&#10;                L79 573 " style="fill:none; stroke:#444; stroke-width:1"/>
               <path d="M79, 570 L87, 573 L79, 576 Z" fill="#333"/>
            </g>
            </svg>